<mxfile host="app.diagrams.net" modified="2021-06-09T12:52:09.109Z" agent="5.0 (Windows NT 10.0; Win64; x64) AppleWebKit/537.36 (KHTML, like Gecko) Chrome/91.0.4472.77 Safari/537.36" etag="16TQ2_xWqu4C12nZg6s-" version="14.7.6" type="github">
  <diagram id="6a731a19-8d31-9384-78a2-239565b7b9f0" name="Page-1">
    <mxGraphModel dx="1422" dy="804" grid="1" gridSize="10" guides="1" tooltips="1" connect="1" arrows="1" fold="1" page="1" pageScale="1" pageWidth="1169" pageHeight="827" background="none" math="0" shadow="0">
      <root>
        <mxCell id="0" />
        <mxCell id="1" parent="0" />
        <mxCell id="1350" value="Focus on Value" style="ellipse;whiteSpace=wrap;html=1;shadow=0;fontFamily=Helvetica;fontSize=20;fontColor=#FFFFFF;align=center;strokeWidth=3;fillColor=#1699D3;strokeColor=none;" parent="1" vertex="1">
          <mxGeometry x="410" y="461.5" width="135" height="128.5" as="geometry" />
        </mxCell>
        <mxCell id="1351" value="Start where you are" style="ellipse;whiteSpace=wrap;html=1;shadow=0;fontFamily=Helvetica;fontSize=20;fontColor=#FFFFFF;align=center;strokeWidth=3;fillColor=#F08705;strokeColor=none;gradientColor=none;" parent="1" vertex="1">
          <mxGeometry x="980" y="246.5" width="140" height="133.5" as="geometry" />
        </mxCell>
        <mxCell id="1352" value="Progress iteratively with feedback" style="ellipse;whiteSpace=wrap;html=1;shadow=0;fontFamily=Helvetica;fontSize=20;fontColor=#FFFFFF;align=center;strokeWidth=3;fillColor=#E85642;strokeColor=none;" parent="1" vertex="1">
          <mxGeometry x="1592.5" y="260" width="150" height="126.5" as="geometry" />
        </mxCell>
        <mxCell id="1353" value="Collaborate and promote visibility" style="ellipse;whiteSpace=wrap;html=1;shadow=0;fontFamily=Helvetica;fontSize=20;fontColor=#FFFFFF;align=center;strokeWidth=3;fillColor=#1699D3;strokeColor=none;" parent="1" vertex="1">
          <mxGeometry x="1742.5" y="767.5" width="180" height="135" as="geometry" />
        </mxCell>
        <mxCell id="1354" value="Think and work holistically" style="ellipse;whiteSpace=wrap;html=1;shadow=0;fontFamily=Helvetica;fontSize=20;fontColor=#FFFFFF;align=center;strokeWidth=3;fillColor=#736ca8;strokeColor=none;" parent="1" vertex="1">
          <mxGeometry x="1495" y="1180" width="165" height="140" as="geometry" />
        </mxCell>
        <mxCell id="1355" value="Keep it simple and practical" style="ellipse;whiteSpace=wrap;html=1;shadow=0;fontFamily=Helvetica;fontSize=20;fontColor=#FFFFFF;align=center;strokeWidth=3;fillColor=#F08705;strokeColor=none;" parent="1" vertex="1">
          <mxGeometry x="910" y="1254.5" width="150" height="129" as="geometry" />
        </mxCell>
        <mxCell id="1356" value="Optimize and automate" style="ellipse;whiteSpace=wrap;html=1;shadow=0;fontFamily=Helvetica;fontSize=20;fontColor=#FFFFFF;align=center;strokeWidth=3;fillColor=#E85642;strokeColor=none;" parent="1" vertex="1">
          <mxGeometry x="300" y="950" width="160" height="132.5" as="geometry" />
        </mxCell>
        <mxCell id="1357" value="Leverage before building new" style="rounded=1;fillColor=#f5af58;strokeColor=none;strokeWidth=3;shadow=0;html=1;fontColor=#FFFFFF;" parent="1" vertex="1">
          <mxGeometry x="800" y="416.5" width="180" height="43.5" as="geometry" />
        </mxCell>
        <mxCell id="1358" value="Experience of customers and users" style="rounded=1;fillColor=#64BBE2;strokeColor=none;strokeWidth=3;shadow=0;html=1;fontColor=#FFFFFF;" parent="1" vertex="1">
          <mxGeometry x="160" y="606.5" width="220" height="40" as="geometry" />
        </mxCell>
        <mxCell id="1359" style="endArrow=none;strokeWidth=6;strokeColor=#1699D3;html=1;" parent="1" source="1515" target="1350" edge="1">
          <mxGeometry relative="1" as="geometry" />
        </mxCell>
        <mxCell id="1360" style="endArrow=none;strokeWidth=6;strokeColor=#f08705;html=1;" parent="1" source="1515" target="1351" edge="1">
          <mxGeometry relative="1" as="geometry" />
        </mxCell>
        <mxCell id="1361" style="endArrow=none;strokeWidth=6;strokeColor=#E85642;html=1;" parent="1" source="1515" target="1352" edge="1">
          <mxGeometry relative="1" as="geometry" />
        </mxCell>
        <mxCell id="1362" style="endArrow=none;strokeWidth=6;strokeColor=#1699D3;html=1;" parent="1" source="1515" target="1353" edge="1">
          <mxGeometry relative="1" as="geometry" />
        </mxCell>
        <mxCell id="1364" style="endArrow=none;strokeWidth=6;strokeColor=#736ca8;html=1;" parent="1" source="1515" target="1354" edge="1">
          <mxGeometry relative="1" as="geometry" />
        </mxCell>
        <mxCell id="1365" value="" style="edgeStyle=none;endArrow=none;strokeWidth=6;strokeColor=#F08705;html=1;" parent="1" source="1515" target="1355" edge="1">
          <mxGeometry x="181" y="226.5" width="100" height="100" as="geometry">
            <mxPoint x="181" y="326.5" as="sourcePoint" />
            <mxPoint x="281" y="226.5" as="targetPoint" />
          </mxGeometry>
        </mxCell>
        <mxCell id="1366" value="" style="edgeStyle=none;endArrow=none;strokeWidth=6;strokeColor=#E85642;html=1;" parent="1" source="1515" target="1356" edge="1">
          <mxGeometry x="181" y="226.5" width="100" height="100" as="geometry">
            <mxPoint x="181" y="326.5" as="sourcePoint" />
            <mxPoint x="281" y="226.5" as="targetPoint" />
          </mxGeometry>
        </mxCell>
        <mxCell id="1367" value="Value for stakeholders" style="rounded=1;fillColor=#64BBE2;strokeColor=none;strokeWidth=3;shadow=0;html=1;fontColor=#FFFFFF;" parent="1" vertex="1">
          <mxGeometry x="412.5" y="646.5" width="130" height="40" as="geometry" />
        </mxCell>
        <mxCell id="1368" value="Understand service customer" style="rounded=1;fillColor=#64BBE2;strokeColor=none;strokeWidth=3;shadow=0;html=1;fontColor=#FFFFFF;" parent="1" vertex="1">
          <mxGeometry x="160" y="536.5" width="190" height="40" as="geometry" />
        </mxCell>
        <mxCell id="1369" value="Understand perception of value" style="rounded=1;fillColor=#64BBE2;strokeColor=none;strokeWidth=3;shadow=0;html=1;fontColor=#FFFFFF;" parent="1" vertex="1">
          <mxGeometry x="170" y="461.5" width="180" height="40" as="geometry" />
        </mxCell>
        <mxCell id="1370" value="Map Value to outcomes" style="rounded=1;fillColor=#64BBE2;strokeColor=none;strokeWidth=3;shadow=0;html=1;fontColor=#FFFFFF;" parent="1" vertex="1">
          <mxGeometry x="260" y="396.5" width="130" height="40" as="geometry" />
        </mxCell>
        <mxCell id="1371" value="Customer Experience (CX)" style="rounded=1;fillColor=#64BBE2;strokeColor=none;strokeWidth=3;shadow=0;html=1;fontColor=#FFFFFF;" parent="1" vertex="1">
          <mxGeometry x="270" y="336.5" width="170" height="40" as="geometry" />
        </mxCell>
        <mxCell id="1372" value="User Experience (UX)" style="rounded=1;fillColor=#64BBE2;strokeColor=none;strokeWidth=3;shadow=0;html=1;fontColor=#FFFFFF;" parent="1" vertex="1">
          <mxGeometry x="390" y="276.5" width="130" height="40" as="geometry" />
        </mxCell>
        <mxCell id="1373" value="" style="rounded=1;fillColor=#64BBE2;strokeColor=none;strokeWidth=3;shadow=0;html=1;fontColor=#FFFFFF;" parent="1" vertex="1">
          <mxGeometry x="510" y="336.5" width="130" height="40" as="geometry" />
        </mxCell>
        <mxCell id="1374" value="" style="rounded=1;fillColor=#64BBE2;strokeColor=none;strokeWidth=3;shadow=0;html=1;fontColor=#FFFFFF;" parent="1" vertex="1">
          <mxGeometry x="565" y="396.5" width="130" height="40" as="geometry" />
        </mxCell>
        <mxCell id="1375" value="" style="rounded=1;fillColor=#64BBE2;strokeColor=none;strokeWidth=3;shadow=0;html=1;fontColor=#FFFFFF;" parent="1" vertex="1">
          <mxGeometry x="600" y="456.5" width="130" height="40" as="geometry" />
        </mxCell>
        <mxCell id="1376" value="" style="rounded=1;fillColor=#64BBE2;strokeColor=none;strokeWidth=3;shadow=0;html=1;fontColor=#FFFFFF;" parent="1" vertex="1">
          <mxGeometry x="615" y="536.5" width="130" height="40" as="geometry" />
        </mxCell>
        <mxCell id="1377" value="" style="edgeStyle=none;endArrow=none;strokeWidth=3;strokeColor=#64BBE2;html=1;" parent="1" source="1350" target="1376" edge="1">
          <mxGeometry x="-320" y="246.5" width="100" height="100" as="geometry">
            <mxPoint x="-320" y="346.5" as="sourcePoint" />
            <mxPoint x="-220" y="246.5" as="targetPoint" />
          </mxGeometry>
        </mxCell>
        <mxCell id="1378" value="" style="edgeStyle=none;endArrow=none;strokeWidth=3;strokeColor=#64BBE2;html=1;" parent="1" source="1350" target="1367" edge="1">
          <mxGeometry x="-320" y="246.5" width="100" height="100" as="geometry">
            <mxPoint x="-320" y="346.5" as="sourcePoint" />
            <mxPoint x="-220" y="246.5" as="targetPoint" />
          </mxGeometry>
        </mxCell>
        <mxCell id="1379" value="" style="edgeStyle=none;endArrow=none;strokeWidth=3;strokeColor=#64BBE2;html=1;" parent="1" source="1350" target="1358" edge="1">
          <mxGeometry x="-320" y="246.5" width="100" height="100" as="geometry">
            <mxPoint x="-320" y="346.5" as="sourcePoint" />
            <mxPoint x="-220" y="246.5" as="targetPoint" />
          </mxGeometry>
        </mxCell>
        <mxCell id="1380" value="" style="edgeStyle=none;endArrow=none;strokeWidth=3;strokeColor=#64BBE2;html=1;" parent="1" source="1350" target="1368" edge="1">
          <mxGeometry x="-320" y="246.5" width="100" height="100" as="geometry">
            <mxPoint x="-320" y="346.5" as="sourcePoint" />
            <mxPoint x="-220" y="246.5" as="targetPoint" />
          </mxGeometry>
        </mxCell>
        <mxCell id="1381" value="" style="edgeStyle=none;endArrow=none;strokeWidth=3;strokeColor=#64BBE2;html=1;" parent="1" source="1350" target="1369" edge="1">
          <mxGeometry x="-320" y="246.5" width="100" height="100" as="geometry">
            <mxPoint x="-320" y="346.5" as="sourcePoint" />
            <mxPoint x="-220" y="246.5" as="targetPoint" />
          </mxGeometry>
        </mxCell>
        <mxCell id="1382" value="" style="edgeStyle=none;endArrow=none;strokeWidth=3;strokeColor=#64BBE2;html=1;" parent="1" source="1350" target="1370" edge="1">
          <mxGeometry x="-320" y="246.5" width="100" height="100" as="geometry">
            <mxPoint x="-320" y="346.5" as="sourcePoint" />
            <mxPoint x="-220" y="246.5" as="targetPoint" />
          </mxGeometry>
        </mxCell>
        <mxCell id="1383" value="" style="edgeStyle=none;endArrow=none;strokeWidth=3;strokeColor=#64BBE2;html=1;" parent="1" source="1350" target="1371" edge="1">
          <mxGeometry x="-320" y="246.5" width="100" height="100" as="geometry">
            <mxPoint x="-320" y="346.5" as="sourcePoint" />
            <mxPoint x="-220" y="246.5" as="targetPoint" />
          </mxGeometry>
        </mxCell>
        <mxCell id="1384" value="" style="edgeStyle=none;endArrow=none;strokeWidth=3;strokeColor=#64BBE2;html=1;" parent="1" source="1350" target="1372" edge="1">
          <mxGeometry x="-320" y="246.5" width="100" height="100" as="geometry">
            <mxPoint x="-320" y="346.5" as="sourcePoint" />
            <mxPoint x="-220" y="246.5" as="targetPoint" />
          </mxGeometry>
        </mxCell>
        <mxCell id="1385" value="" style="edgeStyle=none;endArrow=none;strokeWidth=3;strokeColor=#64BBE2;html=1;" parent="1" source="1350" target="1373" edge="1">
          <mxGeometry x="-320" y="246.5" width="100" height="100" as="geometry">
            <mxPoint x="-320" y="346.5" as="sourcePoint" />
            <mxPoint x="-220" y="246.5" as="targetPoint" />
          </mxGeometry>
        </mxCell>
        <mxCell id="1386" value="" style="edgeStyle=none;endArrow=none;strokeWidth=3;strokeColor=#64BBE2;html=1;" parent="1" source="1350" target="1374" edge="1">
          <mxGeometry x="-320" y="246.5" width="100" height="100" as="geometry">
            <mxPoint x="-320" y="346.5" as="sourcePoint" />
            <mxPoint x="-220" y="246.5" as="targetPoint" />
          </mxGeometry>
        </mxCell>
        <mxCell id="1387" value="" style="edgeStyle=none;endArrow=none;strokeWidth=3;strokeColor=#64BBE2;html=1;" parent="1" source="1350" target="1375" edge="1">
          <mxGeometry x="-320" y="246.5" width="100" height="100" as="geometry">
            <mxPoint x="-320" y="346.5" as="sourcePoint" />
            <mxPoint x="-220" y="246.5" as="targetPoint" />
          </mxGeometry>
        </mxCell>
        <mxCell id="1388" value="Check current services" style="rounded=1;fillColor=#f5af58;strokeColor=none;strokeWidth=3;shadow=0;html=1;fontColor=#FFFFFF;" parent="1" vertex="1">
          <mxGeometry x="770" y="346.5" width="140" height="40" as="geometry" />
        </mxCell>
        <mxCell id="1389" value="Understand current state" style="rounded=1;fillColor=#f5af58;strokeColor=none;strokeWidth=3;shadow=0;html=1;fontColor=#FFFFFF;" parent="1" vertex="1">
          <mxGeometry x="750" y="276.5" width="160" height="40" as="geometry" />
        </mxCell>
        <mxCell id="1390" value="" style="rounded=1;fillColor=#f5af58;strokeColor=none;strokeWidth=3;shadow=0;html=1;fontColor=#FFFFFF;" parent="1" vertex="1">
          <mxGeometry x="810" y="206.5" width="120" height="40" as="geometry" />
        </mxCell>
        <mxCell id="1391" value="" style="rounded=1;fillColor=#f5af58;strokeColor=none;strokeWidth=3;shadow=0;html=1;fontColor=#FFFFFF;" parent="1" vertex="1">
          <mxGeometry x="850" y="146.5" width="120" height="40" as="geometry" />
        </mxCell>
        <mxCell id="1392" value="" style="rounded=1;fillColor=#f5af58;strokeColor=none;strokeWidth=3;shadow=0;html=1;fontColor=#FFFFFF;" parent="1" vertex="1">
          <mxGeometry x="920" y="86.5" width="120" height="40" as="geometry" />
        </mxCell>
        <mxCell id="1393" value="" style="rounded=1;fillColor=#f5af58;strokeColor=none;strokeWidth=3;shadow=0;html=1;fontColor=#FFFFFF;" parent="1" vertex="1">
          <mxGeometry x="1050" y="86.5" width="120" height="40" as="geometry" />
        </mxCell>
        <mxCell id="1394" value="" style="rounded=1;fillColor=#f5af58;strokeColor=none;strokeWidth=3;shadow=0;html=1;fontColor=#FFFFFF;" parent="1" vertex="1">
          <mxGeometry x="1120" y="146.5" width="120" height="40" as="geometry" />
        </mxCell>
        <mxCell id="1395" value="" style="rounded=1;fillColor=#f5af58;strokeColor=none;strokeWidth=3;shadow=0;html=1;fontColor=#FFFFFF;" parent="1" vertex="1">
          <mxGeometry x="1170" y="206.5" width="120" height="40" as="geometry" />
        </mxCell>
        <mxCell id="1396" value="" style="rounded=1;fillColor=#f5af58;strokeColor=none;strokeWidth=3;shadow=0;html=1;fontColor=#FFFFFF;" parent="1" vertex="1">
          <mxGeometry x="1185" y="276.5" width="120" height="40" as="geometry" />
        </mxCell>
        <mxCell id="1397" value="" style="rounded=1;fillColor=#f5af58;strokeColor=none;strokeWidth=3;shadow=0;html=1;fontColor=#FFFFFF;" parent="1" vertex="1">
          <mxGeometry x="1180" y="336.5" width="120" height="40" as="geometry" />
        </mxCell>
        <mxCell id="1398" value="" style="rounded=1;fillColor=#f5af58;strokeColor=none;strokeWidth=3;shadow=0;html=1;fontColor=#FFFFFF;" parent="1" vertex="1">
          <mxGeometry x="1125" y="406.5" width="120" height="40" as="geometry" />
        </mxCell>
        <mxCell id="1399" value="" style="edgeStyle=none;endArrow=none;strokeWidth=3;strokeColor=#F5AF58;html=1;" parent="1" source="1351" target="1357" edge="1">
          <mxGeometry x="-110" y="26.5" width="100" height="100" as="geometry">
            <mxPoint x="-110" y="126.5" as="sourcePoint" />
            <mxPoint x="-10" y="26.5" as="targetPoint" />
          </mxGeometry>
        </mxCell>
        <mxCell id="1400" value="" style="edgeStyle=none;endArrow=none;strokeWidth=3;strokeColor=#F5AF58;html=1;" parent="1" source="1351" target="1388" edge="1">
          <mxGeometry x="-110" y="26.5" width="100" height="100" as="geometry">
            <mxPoint x="-110" y="126.5" as="sourcePoint" />
            <mxPoint x="-10" y="26.5" as="targetPoint" />
          </mxGeometry>
        </mxCell>
        <mxCell id="1401" value="" style="edgeStyle=none;endArrow=none;strokeWidth=3;strokeColor=#F5AF58;html=1;" parent="1" source="1351" target="1389" edge="1">
          <mxGeometry x="-110" y="26.5" width="100" height="100" as="geometry">
            <mxPoint x="-110" y="126.5" as="sourcePoint" />
            <mxPoint x="-10" y="26.5" as="targetPoint" />
          </mxGeometry>
        </mxCell>
        <mxCell id="1402" value="" style="edgeStyle=none;endArrow=none;strokeWidth=3;strokeColor=#F5AF58;html=1;" parent="1" source="1351" target="1390" edge="1">
          <mxGeometry x="-110" y="26.5" width="100" height="100" as="geometry">
            <mxPoint x="-110" y="126.5" as="sourcePoint" />
            <mxPoint x="-10" y="26.5" as="targetPoint" />
          </mxGeometry>
        </mxCell>
        <mxCell id="1403" value="" style="edgeStyle=none;endArrow=none;strokeWidth=3;strokeColor=#F5AF58;html=1;" parent="1" source="1351" target="1391" edge="1">
          <mxGeometry x="-110" y="26.5" width="100" height="100" as="geometry">
            <mxPoint x="-110" y="126.5" as="sourcePoint" />
            <mxPoint x="-10" y="26.5" as="targetPoint" />
          </mxGeometry>
        </mxCell>
        <mxCell id="1404" value="" style="edgeStyle=none;endArrow=none;strokeWidth=3;strokeColor=#F5AF58;html=1;" parent="1" source="1351" target="1392" edge="1">
          <mxGeometry x="-110" y="26.5" width="100" height="100" as="geometry">
            <mxPoint x="-110" y="126.5" as="sourcePoint" />
            <mxPoint x="-10" y="26.5" as="targetPoint" />
          </mxGeometry>
        </mxCell>
        <mxCell id="1405" value="" style="edgeStyle=none;endArrow=none;strokeWidth=3;strokeColor=#F5AF58;html=1;" parent="1" source="1351" target="1393" edge="1">
          <mxGeometry x="-110" y="26.5" width="100" height="100" as="geometry">
            <mxPoint x="-110" y="126.5" as="sourcePoint" />
            <mxPoint x="-10" y="26.5" as="targetPoint" />
          </mxGeometry>
        </mxCell>
        <mxCell id="1406" value="" style="edgeStyle=none;endArrow=none;strokeWidth=3;strokeColor=#F5AF58;html=1;" parent="1" source="1351" target="1394" edge="1">
          <mxGeometry x="-110" y="26.5" width="100" height="100" as="geometry">
            <mxPoint x="-110" y="126.5" as="sourcePoint" />
            <mxPoint x="-10" y="26.5" as="targetPoint" />
          </mxGeometry>
        </mxCell>
        <mxCell id="1407" value="" style="edgeStyle=none;endArrow=none;strokeWidth=3;strokeColor=#F5AF58;html=1;" parent="1" source="1351" target="1395" edge="1">
          <mxGeometry x="-110" y="26.5" width="100" height="100" as="geometry">
            <mxPoint x="-110" y="126.5" as="sourcePoint" />
            <mxPoint x="-10" y="26.5" as="targetPoint" />
          </mxGeometry>
        </mxCell>
        <mxCell id="1408" value="" style="edgeStyle=none;endArrow=none;strokeWidth=3;strokeColor=#F5AF58;html=1;" parent="1" source="1351" target="1396" edge="1">
          <mxGeometry x="-110" y="26.5" width="100" height="100" as="geometry">
            <mxPoint x="-110" y="126.5" as="sourcePoint" />
            <mxPoint x="-10" y="26.5" as="targetPoint" />
          </mxGeometry>
        </mxCell>
        <mxCell id="1409" value="" style="edgeStyle=none;endArrow=none;strokeWidth=3;strokeColor=#F5AF58;html=1;" parent="1" source="1351" target="1397" edge="1">
          <mxGeometry x="-110" y="26.5" width="100" height="100" as="geometry">
            <mxPoint x="-110" y="126.5" as="sourcePoint" />
            <mxPoint x="-10" y="26.5" as="targetPoint" />
          </mxGeometry>
        </mxCell>
        <mxCell id="1410" value="" style="edgeStyle=none;endArrow=none;strokeWidth=3;strokeColor=#F5AF58;html=1;" parent="1" source="1351" target="1398" edge="1">
          <mxGeometry x="-110" y="26.5" width="100" height="100" as="geometry">
            <mxPoint x="-110" y="126.5" as="sourcePoint" />
            <mxPoint x="-10" y="26.5" as="targetPoint" />
          </mxGeometry>
        </mxCell>
        <mxCell id="1411" value="" style="rounded=1;fillColor=#f08e81;strokeColor=none;strokeWidth=3;shadow=0;html=1;fontColor=#FFFFFF;" parent="1" vertex="1">
          <mxGeometry x="1510" y="480" width="120" height="40" as="geometry" />
        </mxCell>
        <mxCell id="1412" value="" style="rounded=1;fillColor=#f08e81;strokeColor=none;strokeWidth=3;shadow=0;html=1;fontColor=#FFFFFF;" parent="1" vertex="1">
          <mxGeometry x="1845" y="321.5" width="120" height="40" as="geometry" />
        </mxCell>
        <mxCell id="1413" value="Not everything at once" style="rounded=1;fillColor=#f08e81;strokeColor=none;strokeWidth=3;shadow=0;html=1;fontColor=#FFFFFF;" parent="1" vertex="1">
          <mxGeometry x="1390" y="356.5" width="140" height="43.5" as="geometry" />
        </mxCell>
        <mxCell id="1414" value="Iteration feedback" style="rounded=1;fillColor=#f08e81;strokeColor=none;strokeWidth=3;shadow=0;html=1;fontColor=#FFFFFF;" parent="1" vertex="1">
          <mxGeometry x="1420" y="291.5" width="120" height="40" as="geometry" />
        </mxCell>
        <mxCell id="1415" value="" style="rounded=1;fillColor=#f08e81;strokeColor=none;strokeWidth=3;shadow=0;html=1;fontColor=#FFFFFF;" parent="1" vertex="1">
          <mxGeometry x="1440" y="211.5" width="120" height="40" as="geometry" />
        </mxCell>
        <mxCell id="1416" value="" style="rounded=1;fillColor=#f08e81;strokeColor=none;strokeWidth=3;shadow=0;html=1;fontColor=#FFFFFF;" parent="1" vertex="1">
          <mxGeometry x="1530" y="141.5" width="120" height="40" as="geometry" />
        </mxCell>
        <mxCell id="1417" value="" style="rounded=1;fillColor=#f08e81;strokeColor=none;strokeWidth=3;shadow=0;html=1;fontColor=#FFFFFF;" parent="1" vertex="1">
          <mxGeometry x="1682.5" y="106.5" width="120" height="40" as="geometry" />
        </mxCell>
        <mxCell id="1418" value="" style="rounded=1;fillColor=#f08e81;strokeColor=none;strokeWidth=3;shadow=0;html=1;fontColor=#FFFFFF;" parent="1" vertex="1">
          <mxGeometry x="1760" y="171.5" width="120" height="40" as="geometry" />
        </mxCell>
        <mxCell id="1419" value="" style="rounded=1;fillColor=#f08e81;strokeColor=none;strokeWidth=3;shadow=0;html=1;fontColor=#FFFFFF;" parent="1" vertex="1">
          <mxGeometry x="1815" y="241.5" width="120" height="40" as="geometry" />
        </mxCell>
        <mxCell id="1420" value="" style="rounded=1;fillColor=#f08e81;strokeColor=none;strokeWidth=3;shadow=0;html=1;fontColor=#FFFFFF;" parent="1" vertex="1">
          <mxGeometry x="1650" y="470" width="120" height="40" as="geometry" />
        </mxCell>
        <mxCell id="1421" value="" style="rounded=1;fillColor=#f08e81;strokeColor=none;strokeWidth=3;shadow=0;html=1;fontColor=#FFFFFF;" parent="1" vertex="1">
          <mxGeometry x="1785" y="461.5" width="120" height="40" as="geometry" />
        </mxCell>
        <mxCell id="1422" value="" style="rounded=1;fillColor=#f08e81;strokeColor=none;strokeWidth=3;shadow=0;html=1;fontColor=#FFFFFF;" parent="1" vertex="1">
          <mxGeometry x="1830" y="396.5" width="120" height="40" as="geometry" />
        </mxCell>
        <mxCell id="1423" value="" style="edgeStyle=none;endArrow=none;strokeWidth=3;strokeColor=#F08E81;html=1;" parent="1" source="1352" target="1411" edge="1">
          <mxGeometry x="-70" y="26.5" width="100" height="100" as="geometry">
            <mxPoint x="-70" y="126.5" as="sourcePoint" />
            <mxPoint x="30" y="26.5" as="targetPoint" />
          </mxGeometry>
        </mxCell>
        <mxCell id="1424" value="" style="edgeStyle=none;endArrow=none;strokeWidth=3;strokeColor=#F08E81;html=1;" parent="1" source="1352" target="1413" edge="1">
          <mxGeometry x="-70" y="26.5" width="100" height="100" as="geometry">
            <mxPoint x="-70" y="126.5" as="sourcePoint" />
            <mxPoint x="30" y="26.5" as="targetPoint" />
          </mxGeometry>
        </mxCell>
        <mxCell id="1425" value="" style="edgeStyle=none;endArrow=none;strokeWidth=3;strokeColor=#F08E81;html=1;" parent="1" source="1352" target="1414" edge="1">
          <mxGeometry x="-70" y="26.5" width="100" height="100" as="geometry">
            <mxPoint x="-70" y="126.5" as="sourcePoint" />
            <mxPoint x="30" y="26.5" as="targetPoint" />
          </mxGeometry>
        </mxCell>
        <mxCell id="1426" value="" style="edgeStyle=none;endArrow=none;strokeWidth=3;strokeColor=#F08E81;html=1;" parent="1" source="1352" target="1415" edge="1">
          <mxGeometry x="-70" y="26.5" width="100" height="100" as="geometry">
            <mxPoint x="-70" y="126.5" as="sourcePoint" />
            <mxPoint x="30" y="26.5" as="targetPoint" />
          </mxGeometry>
        </mxCell>
        <mxCell id="1427" value="" style="edgeStyle=none;endArrow=none;strokeWidth=3;strokeColor=#F08E81;html=1;" parent="1" source="1352" target="1416" edge="1">
          <mxGeometry x="-70" y="26.5" width="100" height="100" as="geometry">
            <mxPoint x="-70" y="126.5" as="sourcePoint" />
            <mxPoint x="30" y="26.5" as="targetPoint" />
          </mxGeometry>
        </mxCell>
        <mxCell id="1428" value="" style="edgeStyle=none;endArrow=none;strokeWidth=3;strokeColor=#F08E81;html=1;" parent="1" source="1352" target="1417" edge="1">
          <mxGeometry x="-70" y="26.5" width="100" height="100" as="geometry">
            <mxPoint x="-70" y="126.5" as="sourcePoint" />
            <mxPoint x="30" y="26.5" as="targetPoint" />
          </mxGeometry>
        </mxCell>
        <mxCell id="1429" value="" style="edgeStyle=none;endArrow=none;strokeWidth=3;strokeColor=#F08E81;html=1;" parent="1" source="1352" target="1418" edge="1">
          <mxGeometry x="-70" y="26.5" width="100" height="100" as="geometry">
            <mxPoint x="-70" y="126.5" as="sourcePoint" />
            <mxPoint x="30" y="26.5" as="targetPoint" />
          </mxGeometry>
        </mxCell>
        <mxCell id="1430" value="" style="edgeStyle=none;endArrow=none;strokeWidth=3;strokeColor=#F08E81;html=1;" parent="1" source="1352" target="1419" edge="1">
          <mxGeometry x="-70" y="26.5" width="100" height="100" as="geometry">
            <mxPoint x="-70" y="126.5" as="sourcePoint" />
            <mxPoint x="30" y="26.5" as="targetPoint" />
          </mxGeometry>
        </mxCell>
        <mxCell id="1431" value="" style="edgeStyle=none;endArrow=none;strokeWidth=3;strokeColor=#F08E81;html=1;" parent="1" source="1352" target="1412" edge="1">
          <mxGeometry x="-70" y="26.5" width="100" height="100" as="geometry">
            <mxPoint x="-70" y="126.5" as="sourcePoint" />
            <mxPoint x="30" y="26.5" as="targetPoint" />
          </mxGeometry>
        </mxCell>
        <mxCell id="1432" value="" style="edgeStyle=none;endArrow=none;strokeWidth=3;strokeColor=#F08E81;html=1;" parent="1" source="1352" target="1422" edge="1">
          <mxGeometry x="-70" y="26.5" width="100" height="100" as="geometry">
            <mxPoint x="-70" y="126.5" as="sourcePoint" />
            <mxPoint x="30" y="26.5" as="targetPoint" />
          </mxGeometry>
        </mxCell>
        <mxCell id="1433" value="" style="edgeStyle=none;endArrow=none;strokeWidth=3;strokeColor=#F08E81;html=1;" parent="1" source="1352" target="1421" edge="1">
          <mxGeometry x="-70" y="26.5" width="100" height="100" as="geometry">
            <mxPoint x="-70" y="126.5" as="sourcePoint" />
            <mxPoint x="30" y="26.5" as="targetPoint" />
          </mxGeometry>
        </mxCell>
        <mxCell id="1434" value="" style="edgeStyle=none;endArrow=none;strokeWidth=3;strokeColor=#F08E81;html=1;" parent="1" source="1352" target="1420" edge="1">
          <mxGeometry x="-70" y="26.5" width="100" height="100" as="geometry">
            <mxPoint x="-70" y="126.5" as="sourcePoint" />
            <mxPoint x="30" y="26.5" as="targetPoint" />
          </mxGeometry>
        </mxCell>
        <mxCell id="1435" value="" style="rounded=1;fillColor=#64BBE2;strokeColor=none;strokeWidth=3;shadow=0;html=1;fontColor=#FFFFFF;" parent="1" vertex="1">
          <mxGeometry x="1587.5" y="747.5" width="120" height="40" as="geometry" />
        </mxCell>
        <mxCell id="1436" value="" style="rounded=1;fillColor=#64BBE2;strokeColor=none;strokeWidth=3;shadow=0;html=1;fontColor=#FFFFFF;" parent="1" vertex="1">
          <mxGeometry x="1617.5" y="677.5" width="120" height="40" as="geometry" />
        </mxCell>
        <mxCell id="1437" value="" style="rounded=1;fillColor=#64BBE2;strokeColor=none;strokeWidth=3;shadow=0;html=1;fontColor=#FFFFFF;" parent="1" vertex="1">
          <mxGeometry x="1742.5" y="647.5" width="120" height="40" as="geometry" />
        </mxCell>
        <mxCell id="1438" value="" style="rounded=1;fillColor=#64BBE2;strokeColor=none;strokeWidth=3;shadow=0;html=1;fontColor=#FFFFFF;" parent="1" vertex="1">
          <mxGeometry x="1862.5" y="597.5" width="120" height="40" as="geometry" />
        </mxCell>
        <mxCell id="1439" value="" style="rounded=1;fillColor=#64BBE2;strokeColor=none;strokeWidth=3;shadow=0;html=1;fontColor=#FFFFFF;" parent="1" vertex="1">
          <mxGeometry x="1907.5" y="687.5" width="120" height="40" as="geometry" />
        </mxCell>
        <mxCell id="1440" value="" style="rounded=1;fillColor=#64BBE2;strokeColor=none;strokeWidth=3;shadow=0;html=1;fontColor=#FFFFFF;" parent="1" vertex="1">
          <mxGeometry x="1977.5" y="767.5" width="120" height="40" as="geometry" />
        </mxCell>
        <mxCell id="1441" value="Trust" style="rounded=1;fillColor=#64BBE2;strokeColor=none;strokeWidth=3;shadow=0;html=1;fontColor=#FFFFFF;" parent="1" vertex="1">
          <mxGeometry x="1927.5" y="947.5" width="120" height="40" as="geometry" />
        </mxCell>
        <mxCell id="1442" value="Candor" style="rounded=1;fillColor=#64BBE2;strokeColor=none;strokeWidth=3;shadow=0;html=1;fontColor=#FFFFFF;" parent="1" vertex="1">
          <mxGeometry x="1987.5" y="852.5" width="120" height="40" as="geometry" />
        </mxCell>
        <mxCell id="1443" value="Understanding" style="rounded=1;fillColor=#64BBE2;strokeColor=none;strokeWidth=3;shadow=0;html=1;fontColor=#FFFFFF;" parent="1" vertex="1">
          <mxGeometry x="1787.5" y="997.5" width="120" height="40" as="geometry" />
        </mxCell>
        <mxCell id="1444" value="Information" style="rounded=1;fillColor=#64BBE2;strokeColor=none;strokeWidth=3;shadow=0;html=1;fontColor=#FFFFFF;" parent="1" vertex="1">
          <mxGeometry x="1662.5" y="937.5" width="120" height="40" as="geometry" />
        </mxCell>
        <mxCell id="1445" value="Work across boundaries" style="rounded=1;fillColor=#64BBE2;strokeColor=none;strokeWidth=3;shadow=0;html=1;fontColor=#FFFFFF;" parent="1" vertex="1">
          <mxGeometry x="1562.5" y="872.5" width="137.5" height="37.5" as="geometry" />
        </mxCell>
        <mxCell id="1446" value="" style="edgeStyle=none;endArrow=none;strokeWidth=3;strokeColor=#64BBE2;html=1;" parent="1" source="1353" target="1435" edge="1">
          <mxGeometry x="-217.5" y="177.5" width="100" height="100" as="geometry">
            <mxPoint x="-217.5" y="277.5" as="sourcePoint" />
            <mxPoint x="-117.5" y="177.5" as="targetPoint" />
          </mxGeometry>
        </mxCell>
        <mxCell id="1447" value="" style="edgeStyle=none;endArrow=none;strokeWidth=3;strokeColor=#64BBE2;html=1;" parent="1" source="1353" target="1436" edge="1">
          <mxGeometry x="-217.5" y="177.5" width="100" height="100" as="geometry">
            <mxPoint x="-217.5" y="277.5" as="sourcePoint" />
            <mxPoint x="-117.5" y="177.5" as="targetPoint" />
          </mxGeometry>
        </mxCell>
        <mxCell id="1448" value="" style="edgeStyle=none;endArrow=none;strokeWidth=3;strokeColor=#64BBE2;html=1;" parent="1" source="1353" target="1437" edge="1">
          <mxGeometry x="-217.5" y="177.5" width="100" height="100" as="geometry">
            <mxPoint x="-217.5" y="277.5" as="sourcePoint" />
            <mxPoint x="-117.5" y="177.5" as="targetPoint" />
          </mxGeometry>
        </mxCell>
        <mxCell id="1449" value="" style="edgeStyle=none;endArrow=none;strokeWidth=3;strokeColor=#64BBE2;html=1;" parent="1" source="1353" target="1438" edge="1">
          <mxGeometry x="-217.5" y="177.5" width="100" height="100" as="geometry">
            <mxPoint x="-217.5" y="277.5" as="sourcePoint" />
            <mxPoint x="-117.5" y="177.5" as="targetPoint" />
          </mxGeometry>
        </mxCell>
        <mxCell id="1450" value="" style="edgeStyle=none;endArrow=none;strokeWidth=3;strokeColor=#64BBE2;html=1;" parent="1" source="1353" target="1439" edge="1">
          <mxGeometry x="-217.5" y="177.5" width="100" height="100" as="geometry">
            <mxPoint x="-217.5" y="277.5" as="sourcePoint" />
            <mxPoint x="-117.5" y="177.5" as="targetPoint" />
          </mxGeometry>
        </mxCell>
        <mxCell id="1451" value="" style="edgeStyle=none;endArrow=none;strokeWidth=3;strokeColor=#64BBE2;html=1;" parent="1" source="1353" target="1440" edge="1">
          <mxGeometry x="-217.5" y="177.5" width="100" height="100" as="geometry">
            <mxPoint x="-217.5" y="277.5" as="sourcePoint" />
            <mxPoint x="-117.5" y="177.5" as="targetPoint" />
          </mxGeometry>
        </mxCell>
        <mxCell id="1452" value="" style="edgeStyle=none;endArrow=none;strokeWidth=3;strokeColor=#64BBE2;html=1;" parent="1" source="1353" target="1442" edge="1">
          <mxGeometry x="-217.5" y="177.5" width="100" height="100" as="geometry">
            <mxPoint x="-217.5" y="277.5" as="sourcePoint" />
            <mxPoint x="-117.5" y="177.5" as="targetPoint" />
          </mxGeometry>
        </mxCell>
        <mxCell id="1453" value="" style="edgeStyle=none;endArrow=none;strokeWidth=3;strokeColor=#64BBE2;html=1;" parent="1" source="1353" target="1441" edge="1">
          <mxGeometry x="-217.5" y="177.5" width="100" height="100" as="geometry">
            <mxPoint x="-217.5" y="277.5" as="sourcePoint" />
            <mxPoint x="-117.5" y="177.5" as="targetPoint" />
          </mxGeometry>
        </mxCell>
        <mxCell id="1454" value="" style="edgeStyle=none;endArrow=none;strokeWidth=3;strokeColor=#64BBE2;html=1;" parent="1" source="1353" target="1443" edge="1">
          <mxGeometry x="-217.5" y="177.5" width="100" height="100" as="geometry">
            <mxPoint x="-217.5" y="277.5" as="sourcePoint" />
            <mxPoint x="-117.5" y="177.5" as="targetPoint" />
          </mxGeometry>
        </mxCell>
        <mxCell id="1455" value="" style="edgeStyle=none;endArrow=none;strokeWidth=3;strokeColor=#64BBE2;html=1;" parent="1" source="1353" target="1444" edge="1">
          <mxGeometry x="-217.5" y="177.5" width="100" height="100" as="geometry">
            <mxPoint x="-217.5" y="277.5" as="sourcePoint" />
            <mxPoint x="-117.5" y="177.5" as="targetPoint" />
          </mxGeometry>
        </mxCell>
        <mxCell id="1456" value="" style="edgeStyle=none;endArrow=none;strokeWidth=3;strokeColor=#64BBE2;html=1;" parent="1" source="1353" target="1445" edge="1">
          <mxGeometry x="-217.5" y="177.5" width="100" height="100" as="geometry">
            <mxPoint x="-217.5" y="277.5" as="sourcePoint" />
            <mxPoint x="-117.5" y="177.5" as="targetPoint" />
          </mxGeometry>
        </mxCell>
        <mxCell id="1457" value="" style="rounded=1;fillColor=#a29dc5;strokeColor=none;strokeWidth=3;shadow=0;html=1;fontColor=#FFFFFF;" parent="1" vertex="1">
          <mxGeometry x="1495" y="1091.5" width="120" height="40" as="geometry" />
        </mxCell>
        <mxCell id="1458" value="Internal &amp;amp; external customers" style="rounded=1;fillColor=#a29dc5;strokeColor=none;strokeWidth=3;shadow=0;html=1;fontColor=#FFFFFF;" parent="1" vertex="1">
          <mxGeometry x="1360" y="1331.5" width="170" height="38.5" as="geometry" />
        </mxCell>
        <mxCell id="1459" value="Define value" style="rounded=1;fillColor=#a29dc5;strokeColor=none;strokeWidth=3;shadow=0;html=1;fontColor=#FFFFFF;" parent="1" vertex="1">
          <mxGeometry x="1634" y="1131.5" width="120" height="40" as="geometry" />
        </mxCell>
        <mxCell id="1460" value="Dynamic integration of info" style="rounded=1;fillColor=#a29dc5;strokeColor=none;strokeWidth=3;shadow=0;html=1;fontColor=#FFFFFF;" parent="1" vertex="1">
          <mxGeometry x="1685" y="1211.5" width="165" height="40" as="geometry" />
        </mxCell>
        <mxCell id="1461" value="Efective &amp;amp; efficient mgmt" style="rounded=1;fillColor=#a29dc5;strokeColor=none;strokeWidth=3;shadow=0;html=1;fontColor=#FFFFFF;" parent="1" vertex="1">
          <mxGeometry x="1605" y="1349" width="155" height="40" as="geometry" />
        </mxCell>
        <mxCell id="1462" value="No single separated service" style="rounded=1;fillColor=#a29dc5;strokeColor=none;strokeWidth=3;shadow=0;html=1;fontColor=#FFFFFF;" parent="1" vertex="1">
          <mxGeometry x="1300" y="1229" width="155" height="40" as="geometry" />
        </mxCell>
        <mxCell id="1463" value="" style="edgeStyle=none;endArrow=none;strokeWidth=3;strokeColor=#A29DC5;html=1;" parent="1" source="1354" target="1460" edge="1">
          <mxGeometry x="35" y="-86" width="100" height="100" as="geometry">
            <mxPoint x="35" y="14" as="sourcePoint" />
            <mxPoint x="135" y="-86" as="targetPoint" />
          </mxGeometry>
        </mxCell>
        <mxCell id="1464" value="" style="edgeStyle=none;endArrow=none;strokeWidth=3;strokeColor=#A29DC5;html=1;" parent="1" source="1354" target="1461" edge="1">
          <mxGeometry x="35" y="-86" width="100" height="100" as="geometry">
            <mxPoint x="35" y="14" as="sourcePoint" />
            <mxPoint x="135" y="-86" as="targetPoint" />
          </mxGeometry>
        </mxCell>
        <mxCell id="1465" value="" style="edgeStyle=none;endArrow=none;strokeWidth=3;strokeColor=#A29DC5;html=1;" parent="1" source="1354" target="1458" edge="1">
          <mxGeometry x="35" y="-86" width="100" height="100" as="geometry">
            <mxPoint x="35" y="14" as="sourcePoint" />
            <mxPoint x="135" y="-86" as="targetPoint" />
          </mxGeometry>
        </mxCell>
        <mxCell id="1466" value="" style="edgeStyle=none;endArrow=none;strokeWidth=3;strokeColor=#A29DC5;html=1;" parent="1" source="1354" target="1462" edge="1">
          <mxGeometry x="35" y="-86" width="100" height="100" as="geometry">
            <mxPoint x="35" y="14" as="sourcePoint" />
            <mxPoint x="135" y="-86" as="targetPoint" />
          </mxGeometry>
        </mxCell>
        <mxCell id="1467" value="" style="edgeStyle=none;endArrow=none;strokeWidth=3;strokeColor=#A29DC5;html=1;" parent="1" source="1354" target="1457" edge="1">
          <mxGeometry x="35" y="-86" width="100" height="100" as="geometry">
            <mxPoint x="35" y="14" as="sourcePoint" />
            <mxPoint x="135" y="-86" as="targetPoint" />
          </mxGeometry>
        </mxCell>
        <mxCell id="1468" value="" style="rounded=1;fillColor=#f5af58;strokeColor=none;strokeWidth=3;shadow=0;html=1;fontColor=#FFFFFF;" parent="1" vertex="1">
          <mxGeometry x="1105" y="1234" width="120" height="40" as="geometry" />
        </mxCell>
        <mxCell id="1469" value="" style="rounded=1;fillColor=#f5af58;strokeColor=none;strokeWidth=3;shadow=0;html=1;fontColor=#FFFFFF;" parent="1" vertex="1">
          <mxGeometry x="1120" y="1306.5" width="120" height="40" as="geometry" />
        </mxCell>
        <mxCell id="1470" value="" style="rounded=1;fillColor=#f5af58;strokeColor=none;strokeWidth=3;shadow=0;html=1;fontColor=#FFFFFF;" parent="1" vertex="1">
          <mxGeometry x="1095" y="1371.5" width="120" height="40" as="geometry" />
        </mxCell>
        <mxCell id="1471" value="" style="rounded=1;fillColor=#f5af58;strokeColor=none;strokeWidth=3;shadow=0;html=1;fontColor=#FFFFFF;" parent="1" vertex="1">
          <mxGeometry x="1030" y="1431.5" width="120" height="40" as="geometry" />
        </mxCell>
        <mxCell id="1472" value="" style="rounded=1;fillColor=#f5af58;strokeColor=none;strokeWidth=3;shadow=0;html=1;fontColor=#FFFFFF;" parent="1" vertex="1">
          <mxGeometry x="930" y="1489" width="120" height="40" as="geometry" />
        </mxCell>
        <mxCell id="1473" value="Practical solutions" style="rounded=1;fillColor=#f5af58;strokeColor=none;strokeWidth=3;shadow=0;html=1;fontColor=#FFFFFF;" parent="1" vertex="1">
          <mxGeometry x="830" y="1431.5" width="120" height="40" as="geometry" />
        </mxCell>
        <mxCell id="1474" value="Outcome-based thinking" style="rounded=1;fillColor=#f5af58;strokeColor=none;strokeWidth=3;shadow=0;html=1;fontColor=#FFFFFF;" parent="1" vertex="1">
          <mxGeometry x="710" y="1371.5" width="160" height="40" as="geometry" />
        </mxCell>
        <mxCell id="1475" value="Minimum numbers of steps necessary" style="rounded=1;fillColor=#f5af58;strokeColor=none;strokeWidth=3;shadow=0;html=1;fontColor=#FFFFFF;" parent="1" vertex="1">
          <mxGeometry x="595" y="1299" width="235" height="40" as="geometry" />
        </mxCell>
        <mxCell id="1476" value="" style="rounded=1;fillColor=#f5af58;strokeColor=none;strokeWidth=3;shadow=0;html=1;fontColor=#FFFFFF;" parent="1" vertex="1">
          <mxGeometry x="715" y="1234" width="120" height="40" as="geometry" />
        </mxCell>
        <mxCell id="1477" value="Eliminate fails" style="rounded=1;fillColor=#f5af58;strokeColor=none;strokeWidth=3;shadow=0;html=1;fontColor=#FFFFFF;" parent="1" vertex="1">
          <mxGeometry x="775" y="1169" width="120" height="40" as="geometry" />
        </mxCell>
        <mxCell id="1478" value="" style="rounded=1;fillColor=#f5af58;strokeColor=none;strokeWidth=3;shadow=0;html=1;fontColor=#FFFFFF;" parent="1" vertex="1">
          <mxGeometry x="1045" y="1154" width="120" height="40" as="geometry" />
        </mxCell>
        <mxCell id="1479" value="" style="edgeStyle=none;endArrow=none;strokeWidth=3;strokeColor=#F5AF58;html=1;" parent="1" source="1355" target="1478" edge="1">
          <mxGeometry x="-10" y="-1" width="100" height="100" as="geometry">
            <mxPoint x="-10" y="99" as="sourcePoint" />
            <mxPoint x="90" y="-1" as="targetPoint" />
          </mxGeometry>
        </mxCell>
        <mxCell id="1480" value="" style="edgeStyle=none;endArrow=none;strokeWidth=3;strokeColor=#F5AF58;html=1;" parent="1" source="1355" target="1468" edge="1">
          <mxGeometry x="-10" y="-1" width="100" height="100" as="geometry">
            <mxPoint x="-10" y="99" as="sourcePoint" />
            <mxPoint x="90" y="-1" as="targetPoint" />
          </mxGeometry>
        </mxCell>
        <mxCell id="1481" value="" style="edgeStyle=none;endArrow=none;strokeWidth=3;strokeColor=#F5AF58;html=1;" parent="1" source="1355" target="1469" edge="1">
          <mxGeometry x="-10" y="-1" width="100" height="100" as="geometry">
            <mxPoint x="-10" y="99" as="sourcePoint" />
            <mxPoint x="90" y="-1" as="targetPoint" />
          </mxGeometry>
        </mxCell>
        <mxCell id="1482" value="" style="edgeStyle=none;endArrow=none;strokeWidth=3;strokeColor=#F5AF58;html=1;" parent="1" source="1355" target="1470" edge="1">
          <mxGeometry x="-10" y="-1" width="100" height="100" as="geometry">
            <mxPoint x="-10" y="99" as="sourcePoint" />
            <mxPoint x="90" y="-1" as="targetPoint" />
          </mxGeometry>
        </mxCell>
        <mxCell id="1483" value="" style="edgeStyle=none;endArrow=none;strokeWidth=3;strokeColor=#F5AF58;html=1;" parent="1" source="1355" target="1471" edge="1">
          <mxGeometry x="-10" y="-1" width="100" height="100" as="geometry">
            <mxPoint x="-10" y="99" as="sourcePoint" />
            <mxPoint x="90" y="-1" as="targetPoint" />
          </mxGeometry>
        </mxCell>
        <mxCell id="1484" value="" style="edgeStyle=none;endArrow=none;strokeWidth=3;strokeColor=#F5AF58;html=1;" parent="1" source="1355" target="1472" edge="1">
          <mxGeometry x="-10" y="-1" width="100" height="100" as="geometry">
            <mxPoint x="-10" y="99" as="sourcePoint" />
            <mxPoint x="90" y="-1" as="targetPoint" />
          </mxGeometry>
        </mxCell>
        <mxCell id="1485" value="" style="edgeStyle=none;endArrow=none;strokeWidth=3;strokeColor=#F5AF58;html=1;" parent="1" source="1355" target="1473" edge="1">
          <mxGeometry x="-10" y="-1" width="100" height="100" as="geometry">
            <mxPoint x="-10" y="99" as="sourcePoint" />
            <mxPoint x="90" y="-1" as="targetPoint" />
          </mxGeometry>
        </mxCell>
        <mxCell id="1486" value="" style="edgeStyle=none;endArrow=none;strokeWidth=3;strokeColor=#F5AF58;html=1;" parent="1" source="1355" target="1474" edge="1">
          <mxGeometry x="-10" y="-1" width="100" height="100" as="geometry">
            <mxPoint x="-10" y="99" as="sourcePoint" />
            <mxPoint x="90" y="-1" as="targetPoint" />
          </mxGeometry>
        </mxCell>
        <mxCell id="1487" value="" style="edgeStyle=none;endArrow=none;strokeWidth=3;strokeColor=#F5AF58;html=1;entryX=1;entryY=0.5;entryDx=0;entryDy=0;" parent="1" source="1355" target="1475" edge="1">
          <mxGeometry x="-10" y="-1" width="100" height="100" as="geometry">
            <mxPoint x="-10" y="99" as="sourcePoint" />
            <mxPoint x="850" y="1310" as="targetPoint" />
          </mxGeometry>
        </mxCell>
        <mxCell id="1488" value="" style="edgeStyle=none;endArrow=none;strokeWidth=3;strokeColor=#F5AF58;html=1;" parent="1" source="1355" target="1476" edge="1">
          <mxGeometry x="-10" y="-1" width="100" height="100" as="geometry">
            <mxPoint x="-10" y="99" as="sourcePoint" />
            <mxPoint x="90" y="-1" as="targetPoint" />
          </mxGeometry>
        </mxCell>
        <mxCell id="1489" value="" style="edgeStyle=none;endArrow=none;strokeWidth=3;strokeColor=#F5AF58;html=1;" parent="1" source="1355" target="1477" edge="1">
          <mxGeometry x="-10" y="-1" width="100" height="100" as="geometry">
            <mxPoint x="-10" y="99" as="sourcePoint" />
            <mxPoint x="90" y="-1" as="targetPoint" />
          </mxGeometry>
        </mxCell>
        <mxCell id="1490" value="Eliminate waste" style="rounded=1;fillColor=#f08e81;strokeColor=none;strokeWidth=3;shadow=0;html=1;fontColor=#FFFFFF;" parent="1" vertex="1">
          <mxGeometry x="395" y="797.5" width="120" height="40" as="geometry" />
        </mxCell>
        <mxCell id="1491" value="" style="rounded=1;fillColor=#f08e81;strokeColor=none;strokeWidth=3;shadow=0;html=1;fontColor=#FFFFFF;" parent="1" vertex="1">
          <mxGeometry x="260" y="802.5" width="120" height="40" as="geometry" />
        </mxCell>
        <mxCell id="1492" value="" style="rounded=1;fillColor=#f08e81;strokeColor=none;strokeWidth=3;shadow=0;html=1;fontColor=#FFFFFF;" parent="1" vertex="1">
          <mxGeometry x="195" y="857.5" width="120" height="40" as="geometry" />
        </mxCell>
        <mxCell id="1493" value="" style="rounded=1;fillColor=#f08e81;strokeColor=none;strokeWidth=3;shadow=0;html=1;fontColor=#FFFFFF;" parent="1" vertex="1">
          <mxGeometry x="140" y="917.5" width="120" height="40" as="geometry" />
        </mxCell>
        <mxCell id="1494" value="" style="rounded=1;fillColor=#f08e81;strokeColor=none;strokeWidth=3;shadow=0;html=1;fontColor=#FFFFFF;" parent="1" vertex="1">
          <mxGeometry x="120" y="972.5" width="120" height="40" as="geometry" />
        </mxCell>
        <mxCell id="1495" value="" style="rounded=1;fillColor=#f08e81;strokeColor=none;strokeWidth=3;shadow=0;html=1;fontColor=#FFFFFF;" parent="1" vertex="1">
          <mxGeometry x="135" y="1037.5" width="120" height="40" as="geometry" />
        </mxCell>
        <mxCell id="1496" value="" style="rounded=1;fillColor=#f08e81;strokeColor=none;strokeWidth=3;shadow=0;html=1;fontColor=#FFFFFF;" parent="1" vertex="1">
          <mxGeometry x="170" y="1100" width="120" height="40" as="geometry" />
        </mxCell>
        <mxCell id="1497" value="" style="rounded=1;fillColor=#f08e81;strokeColor=none;strokeWidth=3;shadow=0;html=1;fontColor=#FFFFFF;" parent="1" vertex="1">
          <mxGeometry x="240" y="1150" width="120" height="40" as="geometry" />
        </mxCell>
        <mxCell id="1498" value="" style="rounded=1;fillColor=#f08e81;strokeColor=none;strokeWidth=3;shadow=0;html=1;fontColor=#FFFFFF;" parent="1" vertex="1">
          <mxGeometry x="350" y="1205" width="120" height="40" as="geometry" />
        </mxCell>
        <mxCell id="1499" value="" style="rounded=1;fillColor=#f08e81;strokeColor=none;strokeWidth=3;shadow=0;html=1;fontColor=#FFFFFF;" parent="1" vertex="1">
          <mxGeometry x="475" y="1140" width="120" height="40" as="geometry" />
        </mxCell>
        <mxCell id="1500" value="Human intervention only when necessary" style="rounded=1;fillColor=#f08e81;strokeColor=none;strokeWidth=3;shadow=0;html=1;fontColor=#FFFFFF;" parent="1" vertex="1">
          <mxGeometry x="535" y="1072.5" width="245" height="40" as="geometry" />
        </mxCell>
        <mxCell id="1501" value="Use technology" style="rounded=1;fillColor=#f08e81;strokeColor=none;strokeWidth=3;shadow=0;html=1;fontColor=#FFFFFF;" parent="1" vertex="1">
          <mxGeometry x="555" y="977" width="120" height="40" as="geometry" />
        </mxCell>
        <mxCell id="1502" value="" style="edgeStyle=none;endArrow=none;strokeWidth=3;strokeColor=#F08E81;html=1;" parent="1" source="1356" target="1501" edge="1">
          <mxGeometry x="-40" y="-157.5" width="100" height="100" as="geometry">
            <mxPoint x="-40" y="-57.5" as="sourcePoint" />
            <mxPoint x="60" y="-157.5" as="targetPoint" />
          </mxGeometry>
        </mxCell>
        <mxCell id="1503" value="" style="edgeStyle=none;endArrow=none;strokeWidth=3;strokeColor=#F08E81;html=1;" parent="1" source="1356" target="1490" edge="1">
          <mxGeometry x="-40" y="-157.5" width="100" height="100" as="geometry">
            <mxPoint x="-40" y="-57.5" as="sourcePoint" />
            <mxPoint x="60" y="-157.5" as="targetPoint" />
          </mxGeometry>
        </mxCell>
        <mxCell id="1504" value="" style="edgeStyle=none;endArrow=none;strokeWidth=3;strokeColor=#F08E81;html=1;" parent="1" source="1356" target="1491" edge="1">
          <mxGeometry x="-40" y="-157.5" width="100" height="100" as="geometry">
            <mxPoint x="-40" y="-57.5" as="sourcePoint" />
            <mxPoint x="60" y="-157.5" as="targetPoint" />
          </mxGeometry>
        </mxCell>
        <mxCell id="1505" value="" style="edgeStyle=none;endArrow=none;strokeWidth=3;strokeColor=#F08E81;html=1;" parent="1" source="1356" target="1492" edge="1">
          <mxGeometry x="-40" y="-157.5" width="100" height="100" as="geometry">
            <mxPoint x="-40" y="-57.5" as="sourcePoint" />
            <mxPoint x="60" y="-157.5" as="targetPoint" />
          </mxGeometry>
        </mxCell>
        <mxCell id="1506" value="" style="edgeStyle=none;endArrow=none;strokeWidth=3;strokeColor=#F08E81;html=1;" parent="1" source="1356" target="1493" edge="1">
          <mxGeometry x="-40" y="-157.5" width="100" height="100" as="geometry">
            <mxPoint x="-40" y="-57.5" as="sourcePoint" />
            <mxPoint x="60" y="-157.5" as="targetPoint" />
          </mxGeometry>
        </mxCell>
        <mxCell id="1507" value="" style="edgeStyle=none;endArrow=none;strokeWidth=3;strokeColor=#F08E81;html=1;" parent="1" source="1356" target="1494" edge="1">
          <mxGeometry x="-40" y="-157.5" width="100" height="100" as="geometry">
            <mxPoint x="-40" y="-57.5" as="sourcePoint" />
            <mxPoint x="60" y="-157.5" as="targetPoint" />
          </mxGeometry>
        </mxCell>
        <mxCell id="1508" value="" style="edgeStyle=none;endArrow=none;strokeWidth=3;strokeColor=#F08E81;html=1;" parent="1" source="1356" target="1495" edge="1">
          <mxGeometry x="-40" y="-157.5" width="100" height="100" as="geometry">
            <mxPoint x="-40" y="-57.5" as="sourcePoint" />
            <mxPoint x="60" y="-157.5" as="targetPoint" />
          </mxGeometry>
        </mxCell>
        <mxCell id="1509" value="" style="edgeStyle=none;endArrow=none;strokeWidth=3;strokeColor=#F08E81;html=1;" parent="1" source="1356" target="1496" edge="1">
          <mxGeometry x="-40" y="-157.5" width="100" height="100" as="geometry">
            <mxPoint x="-40" y="-57.5" as="sourcePoint" />
            <mxPoint x="60" y="-157.5" as="targetPoint" />
          </mxGeometry>
        </mxCell>
        <mxCell id="1510" value="" style="edgeStyle=none;endArrow=none;strokeWidth=3;strokeColor=#F08E81;html=1;" parent="1" source="1356" target="1497" edge="1">
          <mxGeometry x="-40" y="-157.5" width="100" height="100" as="geometry">
            <mxPoint x="-40" y="-57.5" as="sourcePoint" />
            <mxPoint x="60" y="-157.5" as="targetPoint" />
          </mxGeometry>
        </mxCell>
        <mxCell id="1511" value="" style="edgeStyle=none;endArrow=none;strokeWidth=3;strokeColor=#F08E81;html=1;" parent="1" source="1356" target="1498" edge="1">
          <mxGeometry x="-40" y="-157.5" width="100" height="100" as="geometry">
            <mxPoint x="-40" y="-57.5" as="sourcePoint" />
            <mxPoint x="60" y="-157.5" as="targetPoint" />
          </mxGeometry>
        </mxCell>
        <mxCell id="1512" value="" style="edgeStyle=none;endArrow=none;strokeWidth=3;strokeColor=#F08E81;html=1;" parent="1" source="1356" target="1499" edge="1">
          <mxGeometry x="-40" y="-157.5" width="100" height="100" as="geometry">
            <mxPoint x="-40" y="-57.5" as="sourcePoint" />
            <mxPoint x="60" y="-157.5" as="targetPoint" />
          </mxGeometry>
        </mxCell>
        <mxCell id="1513" value="" style="edgeStyle=none;endArrow=none;strokeWidth=3;strokeColor=#F08E81;html=1;" parent="1" source="1356" target="1500" edge="1">
          <mxGeometry x="-40" y="-157.5" width="100" height="100" as="geometry">
            <mxPoint x="-40" y="-57.5" as="sourcePoint" />
            <mxPoint x="60" y="-157.5" as="targetPoint" />
          </mxGeometry>
        </mxCell>
        <mxCell id="1514" style="edgeStyle=orthogonalEdgeStyle;rounded=0;html=1;exitX=0.75;exitY=0;entryX=0.75;entryY=0;startArrow=none;startFill=0;endArrow=block;endFill=1;jettySize=auto;orthogonalLoop=1;strokeColor=#12aab5;strokeWidth=6;fontSize=20;fontColor=#2F5B7C;" parent="1" source="1414" target="1414" edge="1">
          <mxGeometry relative="1" as="geometry" />
        </mxCell>
        <mxCell id="1515" value="Guiding Principles" style="ellipse;whiteSpace=wrap;html=1;shadow=0;fontFamily=Helvetica;fontSize=30;fontColor=#2F5B7C;align=center;strokeColor=#2F5B7C;strokeWidth=6;fillColor=#FFFFFF;fontStyle=1;gradientColor=none;" parent="1" vertex="1">
          <mxGeometry x="926" y="661" width="319" height="286.5" as="geometry" />
        </mxCell>
        <mxCell id="1541" value="" style="edgeStyle=none;endArrow=none;strokeWidth=3;strokeColor=#A29DC5;html=1;" parent="1" source="1354" target="1459" edge="1">
          <mxGeometry x="-1390" y="-391" width="100" height="100" as="geometry">
            <mxPoint x="-1390" y="-291" as="sourcePoint" />
            <mxPoint x="-1290" y="-391" as="targetPoint" />
          </mxGeometry>
        </mxCell>
      </root>
    </mxGraphModel>
  </diagram>
</mxfile>
